<mxfile host="app.diagrams.net" agent="Mozilla/5.0 (Windows NT 10.0; Win64; x64) AppleWebKit/537.36 (KHTML, like Gecko) Chrome/134.0.0.0 Safari/537.36 CCleaner/134.0.0.0" version="26.2.15">
  <diagram name="Page-1" id="qKqYpTMinUxnXY45LcYu">
    <mxGraphModel dx="512" dy="614" grid="0" gridSize="10" guides="1" tooltips="1" connect="1" arrows="1" fold="1" page="0" pageScale="1" pageWidth="850" pageHeight="1100" math="0" shadow="0">
      <root>
        <mxCell id="0" />
        <mxCell id="1" parent="0" />
        <mxCell id="wMfm8VEEnRoRr0-f4v-8-1" value="balhalalhalh" style="text;html=1;align=center;verticalAlign=middle;whiteSpace=wrap;rounded=0;" vertex="1" parent="1">
          <mxGeometry x="170" y="184" width="60" height="30" as="geometry" />
        </mxCell>
        <mxCell id="wMfm8VEEnRoRr0-f4v-8-2" value="&lt;h1 style=&quot;margin-top: 0px;&quot;&gt;Heading&lt;/h1&gt;&lt;p&gt;Lorem ipsum dolor sit amet, consectetur adipisicing elit, sed do eiusmod tempor incididunt ut labore et dolore magna aliqua.&lt;/p&gt;" style="text;html=1;whiteSpace=wrap;overflow=hidden;rounded=0;" vertex="1" parent="1">
          <mxGeometry x="110" y="139" width="180" height="120" as="geometry" />
        </mxCell>
        <mxCell id="wMfm8VEEnRoRr0-f4v-8-3" value="&lt;h1 style=&quot;margin-top: 0px;&quot;&gt;asjdfhkjasdhfkasjlf&lt;/h1&gt;" style="text;html=1;whiteSpace=wrap;overflow=hidden;rounded=0;" vertex="1" parent="1">
          <mxGeometry x="132" y="157" width="180" height="120" as="geometry" />
        </mxCell>
        <mxCell id="wMfm8VEEnRoRr0-f4v-8-4" value="the thingimababy" style="text;html=1;align=center;verticalAlign=middle;resizable=0;points=[];autosize=1;strokeColor=none;fillColor=none;fontSize=16;" vertex="1" parent="1">
          <mxGeometry x="132" y="157" width="140" height="31" as="geometry" />
        </mxCell>
        <mxCell id="wMfm8VEEnRoRr0-f4v-8-5" value="nucleaer bomb" style="text;html=1;align=center;verticalAlign=middle;resizable=0;points=[];autosize=1;strokeColor=none;fillColor=none;fontSize=16;" vertex="1" parent="1">
          <mxGeometry x="116.5" y="324.5" width="124" height="31" as="geometry" />
        </mxCell>
        <mxCell id="wMfm8VEEnRoRr0-f4v-8-6" value="" style="shape=card;whiteSpace=wrap;html=1;" vertex="1" parent="1">
          <mxGeometry x="116.5" y="267" width="126.5" height="100" as="geometry" />
        </mxCell>
      </root>
    </mxGraphModel>
  </diagram>
</mxfile>
